<svg xmlns="http://www.w3.org/2000/svg" viewBox="0 0 1600 1000" preserveAspectRatio="xMidYMid slice">
  <defs>
    <linearGradient id="heroFade" x1="0" y1="0" x2="1" y2="0">
      <stop offset="0%" stop-color="#0A2342" stop-opacity="1"/>
      <stop offset="55%" stop-color="#0A2342" stop-opacity="0.55"/>
      <stop offset="100%" stop-color="#0A2342" stop-opacity="0"/>
    </linearGradient>
  </defs>

  <rect width="1600" height="1000" fill="#0A2342"/>

  <!-- chart grid -->
  <g stroke="rgba(255,255,255,0.05)" stroke-width="1">
    <path d="M0 64H1600M0 128H1600M0 192H1600M0 256H1600M0 320H1600M0 384H1600M0 448H1600M0 512H1600M0 576H1600M0 640H1600M0 704H1600M0 768H1600M0 832H1600M0 896H1600M0 960H1600"/>
    <path d="M64 0V1000M128 0V1000M192 0V1000M256 0V1000M320 0V1000M384 0V1000M448 0V1000M512 0V1000M576 0V1000M640 0V1000M704 0V1000M768 0V1000M832 0V1000M896 0V1000M960 0V1000M1024 0V1000M1088 0V1000M1152 0V1000M1216 0V1000M1280 0V1000M1344 0V1000M1408 0V1000M1472 0V1000M1536 0V1000"/>
  </g>

  <!-- horizon and water -->
  <line x1="0" y1="760" x2="1600" y2="760" stroke="#22406C" stroke-width="1.5"/>
  <line x1="0" y1="800" x2="1600" y2="800" stroke="#1B355E" stroke-width="1"/>
  <line x1="0" y1="840" x2="1600" y2="840" stroke="#1B355E" stroke-width="1"/>
  <line x1="0" y1="880" x2="1600" y2="880" stroke="#1B355E" stroke-width="1"/>
  <line x1="0" y1="920" x2="1600" y2="920" stroke="#1B355E" stroke-width="1"/>

  <!-- cargo ship -->
  <g stroke="#3E699F" stroke-width="2" fill="none" opacity="0.85">
    <path d="M980 760 L1010 700 L1560 700 L1590 760 Z"/>
    <rect x="1040" y="640" width="70" height="60"/>
    <rect x="1120" y="655" width="55" height="45"/>
    <rect x="1190" y="640" width="90" height="60"/>
    <rect x="1300" y="655" width="60" height="45"/>
    <rect x="1050" y="600" width="30" height="40"/>
    <line x1="1065" y1="600" x2="1065" y2="560"/>
    <line x1="1050" y1="562" x2="1082" y2="562"/>
  </g>
  <g fill="none" stroke="#5A85C2" stroke-width="1.5" opacity="0.9">
    <rect x="1195" y="612" width="42" height="28"/>
    <rect x="1240" y="612" width="42" height="28"/>
    <rect x="1195" y="584" width="42" height="26"/>
    <rect x="1305" y="618" width="42" height="22"/>
  </g>

  <!-- gantry crane -->
  <g stroke="#4E76AC" stroke-width="2.5" fill="none">
    <line x1="760" y1="760" x2="760" y2="430"/>
    <line x1="900" y1="760" x2="900" y2="430"/>
    <line x1="700" y1="440" x2="960" y2="440"/>
    <line x1="700" y1="440" x2="620" y2="470"/>
    <line x1="960" y1="440" x2="1040" y2="470"/>
    <line x1="800" y1="440" x2="800" y2="560"/>
    <line x1="778" y1="560" x2="822" y2="560"/>
    <line x1="778" y1="560" x2="778" y2="600"/>
    <line x1="822" y1="560" x2="822" y2="600"/>
    <line x1="778" y1="600" x2="822" y2="600"/>
  </g>

  <!-- container stacks -->
  <g fill="none" stroke="#3E699F" stroke-width="2" opacity="0.9">
    <rect x="60" y="660" width="130" height="55"/>
    <rect x="60" y="600" width="130" height="55"/>
    <rect x="200" y="685" width="130" height="55"/>
    <rect x="200" y="625" width="130" height="55"/>
    <rect x="340" y="660" width="90" height="55"/>
    <line x1="60" y1="627" x2="190" y2="627"/>
    <line x1="200" y1="652" x2="330" y2="652"/>
  </g>

  <!-- flight path -->
  <path d="M120 300 Q 500 120 1500 260" fill="none" stroke="#2C4E82" stroke-width="1.5" stroke-dasharray="3 10"/>
  <g transform="translate(490,148) rotate(-8)" stroke="#5A85C2" stroke-width="2" fill="none">
    <path d="M0 0 L54 4 L64 0 L54 -4 Z"/>
    <path d="M18 -1 L10 -16 L18 -14 L24 -1 Z"/>
    <path d="M18 3 L10 18 L18 16 L24 3 Z"/>
    <path d="M46 -1 L54 -9 L58 -8 L52 1 Z"/>
  </g>

  <!-- convergence network: single point of contact -->
  <g opacity="0.95">
    <circle cx="1180" cy="330" r="6" fill="#8FB4E8"/>
    <line x1="1180" y1="330" x2="900" y2="200" stroke="#2C4E82" stroke-width="1.3"/>
    <line x1="1180" y1="330" x2="1430" y2="180" stroke="#2C4E82" stroke-width="1.3"/>
    <line x1="1180" y1="330" x2="1470" y2="400" stroke="#2C4E82" stroke-width="1.3"/>
    <line x1="1180" y1="330" x2="980" y2="440" stroke="#2C4E82" stroke-width="1.3"/>
    <line x1="1180" y1="330" x2="1280" y2="470" stroke="#2C4E82" stroke-width="1.3"/>
    <circle cx="900" cy="200" r="3.5" fill="#5A85C2"/>
    <circle cx="1430" cy="180" r="3.5" fill="#5A85C2"/>
    <circle cx="1470" cy="400" r="3.5" fill="#5A85C2"/>
    <circle cx="980" cy="440" r="3.5" fill="#5A85C2"/>
    <circle cx="1280" cy="470" r="3.5" fill="#5A85C2"/>
    <circle cx="1180" cy="330" r="16" fill="none" stroke="#8FB4E8" stroke-width="1"/>
    <circle cx="1180" cy="330" r="26" fill="none" stroke="#8FB4E8" stroke-width="0.6" opacity="0.6"/>
  </g>

  <rect x="0" y="0" width="900" height="1000" fill="url(#heroFade)"/>
</svg>
