<svg xmlns="http://www.w3.org/2000/svg" viewBox="0 0 620 720">
  <circle cx="310" cy="360" r="86" fill="#0A2342"/>
  <circle cx="310" cy="360" r="86" fill="none" stroke="#1B4F9C" stroke-width="1"/>
  <circle cx="310" cy="360" r="120" fill="none" stroke="#E1E7F0" stroke-width="1.5"/>
  <circle cx="310" cy="360" r="160" fill="none" stroke="#E1E7F0" stroke-width="1.5"/>
  <text x="310" y="352" text-anchor="middle" font-family="Montserrat, Arial, sans-serif" font-weight="700" font-size="15" fill="#ffffff">OLB</text>
  <text x="310" y="374" text-anchor="middle" font-family="Inter, Arial, sans-serif" font-weight="500" font-size="10.5" fill="#B7C9E6" letter-spacing="1">4PL</text>

  <g font-family="Inter, Arial, sans-serif" font-size="13" fill="#334255" font-weight="500">
    <line x1="310" y1="274" x2="310" y2="130" stroke="#C7D3E4" stroke-width="1.4"/>
    <circle cx="310" cy="130" r="5" fill="#1B4F9C"/>
    <text x="310" y="105" text-anchor="middle">Proveedores</text>

    <line x1="371" y1="299" x2="500" y2="185" stroke="#C7D3E4" stroke-width="1.4"/>
    <circle cx="500" cy="185" r="5" fill="#1B4F9C"/>
    <text x="500" y="163" text-anchor="middle">Transportistas</text>

    <line x1="396" y1="360" x2="560" y2="360" stroke="#C7D3E4" stroke-width="1.4"/>
    <circle cx="560" cy="360" r="5" fill="#1B4F9C"/>
    <text x="560" y="340" text-anchor="middle">Agentes de<tspan x="560" dy="15">carga</tspan></text>

    <line x1="371" y1="421" x2="500" y2="540" stroke="#C7D3E4" stroke-width="1.4"/>
    <circle cx="500" cy="540" r="5" fill="#1B4F9C"/>
    <text x="500" y="562" text-anchor="middle">Agencias de<tspan x="500" dy="15">aduana</tspan></text>

    <line x1="250" y1="421" x2="120" y2="540" stroke="#C7D3E4" stroke-width="1.4"/>
    <circle cx="120" cy="540" r="5" fill="#1B4F9C"/>
    <text x="120" y="562" text-anchor="middle">Entidades<tspan x="120" dy="15">gubernamentales</tspan></text>

    <line x1="224" y1="360" x2="60" y2="360" stroke="#C7D3E4" stroke-width="1.4"/>
    <circle cx="60" cy="360" r="5" fill="#1B4F9C"/>
    <text x="60" y="340" text-anchor="middle">Su<tspan x="60" dy="15">empresa</tspan></text>

    <line x1="250" y1="299" x2="120" y2="185" stroke="#C7D3E4" stroke-width="1.4"/>
    <circle cx="120" cy="185" r="5" fill="#1B4F9C"/>
    <text x="120" y="163" text-anchor="middle">Navieras /<tspan x="120" dy="15">aerolíneas</tspan></text>
  </g>
</svg>
